<svg xmlns="http://www.w3.org/2000/svg" viewBox="0 0 8.65 8.65"><title>cat</title><circle cx="4.36" cy="4.36" r="3.89" style="fill:#fff"/><path d="M6.78,6a3.76,3.76,0,0,1-.62-1.05,1.41,1.41,0,0,1,0-.69L6.43,4l.28,0,.18-.28s-.21-.19-.22-.26-.27-.22-.27-.22L6.34,3l-.14.06a.93.93,0,0,1-.48.44.79.79,0,0,1-.42.26,9.62,9.62,0,0,0-1.15-.24,4.25,4.25,0,0,0-1.1,0H3c-.7.15-.92-.4-1.09-1a.93.93,0,0,1,0-.13A.63.63,0,0,0,1.17,2a.12.12,0,0,0-.1.14.11.11,0,0,0,.14.1s.37,0,.46.23a.93.93,0,0,0,0,.13c.1.38.31,1.09,1,1.19a1.25,1.25,0,0,0-.29.45,3.28,3.28,0,0,1-.4.89,2.13,2.13,0,0,0-.31.67c0,.09.05.42.05.42h.38l0-.21L2,6s0-.36.19-.47a4.08,4.08,0,0,1,.9-.57c.15,0,.06.71.1.75l.39.55H4l0-.18L3.82,6H3.66s-.19-.3-.16-.38.29-.51.35-.66l.74.11V6.13l.1.11H5l0-.15L4.87,6s.17-.78.35-.84.83.31,1,.62a1.7,1.7,0,0,0,.44.48H7V6Z"/><path d="M4.32,0A4.33,4.33,0,1,0,8.65,4.32,4.33,4.33,0,0,0,4.32,0ZM7.77,4.32a3.43,3.43,0,0,1-.72,2.11L2.22,1.6A3.44,3.44,0,0,1,7.77,4.32Zm-6.89,0a3.42,3.42,0,0,1,.72-2.1L6.43,7.05A3.44,3.44,0,0,1,.88,4.32Z" style="fill:#ec1b2f"/></svg>