<svg xmlns="http://www.w3.org/2000/svg" viewBox="0 0 15.5 7.17"><title>final</title><path d="M15.5,6V1.18A1.18,1.18,0,0,1,14.32,0H1.18A1.18,1.18,0,0,1,0,1.18V6A1.18,1.18,0,0,1,1.18,7.17H14.32A1.18,1.18,0,0,1,15.5,6Z" style="fill:#1149d3"/><path d="M2.33,4.32l-.15-.11.11-.8H2.18V3.34H2.3v0c0-.09.05-.14.15-.24s.14-.13.24-.13h.14L2.8,3s0,.05,0,.05H2.6c-.09,0-.11,0-.14.23v0h.17l.25,0h0l-.09.47s0,.05.07.05h.06v0A.27.27,0,0,1,2.74,4c-.09,0-.12,0-.11-.13l.05-.24c0-.08,0-.14,0-.17H2.45l-.08.51c0,.12,0,.21,0,.28l.05.06h0Z"/><path d="M3,4H3l.06-.38c0-.11,0-.16-.06-.17H3l.12-.08h0a.13.13,0,0,1,.08.11.28.28,0,0,1,.22-.11c.13,0,.2.09.18.23l0,.26c0,.05,0,.06.08.05v0A.25.25,0,0,1,3.53,4c-.08,0-.1,0-.09-.12l.05-.29c0-.08,0-.12-.11-.12s-.1,0-.12.12l-.06.38h0Z"/><path d="M4.29,4h0a.13.13,0,0,1-.08-.12A.25.25,0,0,1,4,4c-.15,0-.22-.08-.19-.25V3.64A.31.31,0,0,1,4,3.39a.34.34,0,0,1,.22-.07h.11l.09-.06h0l-.07.43c0,.11,0,.16.06.17h0Zm-.22-.13c.07,0,.1,0,.12-.11l0-.3H4.12c-.08,0-.11,0-.13.13l0,.13C4,3.81,4,3.84,4.07,3.84Z"/><path d="M4.57,3.81l.09-.56c0-.13,0-.19,0-.22H4.61V3h.24l-.13.83s0,.06.07.06l.07,0h0v0A.25.25,0,0,1,4.69,4C4.6,4,4.55,3.91,4.57,3.81Z"/><path d="M5.11,4.32,5,4.21l.12-.8H5V3.34h.11v0a.41.41,0,0,1,.14-.24c.1-.1.15-.13.25-.13h.13l0,.07s0,.05,0,.05H5.38c-.09,0-.1,0-.13.23v0h.17l.26,0h0l-.09.47s0,.05.07.05h.06v0A.33.33,0,0,1,5.52,4c-.08,0-.12,0-.1-.13l0-.24a.86.86,0,0,0,0-.17H5.23l-.07.51a1.78,1.78,0,0,0,0,.28l0,.06h0Z"/><path d="M5.83,4h0l.06-.38c0-.11,0-.16-.07-.17h0L6,3.31H6A.13.13,0,0,1,6,3.42a.28.28,0,0,1,.22-.11c.13,0,.2.09.18.23l-.05.26c0,.05,0,.06.08.05v0A.27.27,0,0,1,6.31,4c-.07,0-.1,0-.08-.12l0-.29c0-.08,0-.12-.11-.12s-.1,0-.12.12L6,3.92H6Z"/><path d="M7.07,4h0A.12.12,0,0,1,7,3.85a.22.22,0,0,1-.2.1c-.14,0-.21-.08-.18-.25V3.64a.3.3,0,0,1,.16-.25A.39.39,0,0,1,7,3.32h.1l.1-.06h0l-.07.43c0,.11,0,.16.06.17h0Zm-.21-.13c.07,0,.1,0,.11-.11L7,3.43H6.91c-.08,0-.11,0-.13.13l0,.13C6.74,3.81,6.77,3.84,6.86,3.84Z"/><path d="M7.36,3.81l.08-.56c0-.13,0-.19,0-.22H7.4V3h.25l-.13.83s0,.06.07.06l.07,0h0v0A.25.25,0,0,1,7.48,4C7.39,4,7.34,3.91,7.36,3.81Z"/><path d="M7.75,4.22H7.62l0-.09s0,0,0,0h.17a.16.16,0,0,0,.11,0A.13.13,0,0,0,8.05,4v0q0-.15-.15-.15H7.79l.06-.12h0c.17,0,.22-.07.23-.14h0q0-.12-.12-.12a.25.25,0,0,0-.16.05h0l.08-.14h0a.32.32,0,0,1,.16,0c.18,0,.25.08.23.2h0c0,.1-.07.13-.21.19.14,0,.18.11.17.2v0c0,.09-.08.14-.19.21A.41.41,0,0,1,7.75,4.22Z"/><path d="M8.34,3.87h.14c0-.07.07-.42.07-.5H8.42V3.31l.29,0h0c0,.21-.08.52-.09.59h.14v.06H8.33Z"/><path d="M9.19,4.26l0,0a.32.32,0,0,0,.06-.17l0-.13H8.91l0-.12h0l.41-.51h0l.2,0h0l0,.22-.05.33h0a.11.11,0,0,0,.09,0l0,0-.07.14h-.1V4c0,.08,0,.09,0,.12Zm.06-.45,0-.24a1,1,0,0,1,0-.18A3.42,3.42,0,0,0,9,3.8h.25Z"/><path d="M9.74,4.22H9.62l0-.09s0,0,.06,0h.14a.16.16,0,0,0,.11,0S10,4,10,3.89v-.1c-.07,0-.1.09-.2.09a.17.17,0,0,1-.19-.22V3.57a.29.29,0,0,1,.17-.23.37.37,0,0,1,.2-.07c.15,0,.23.1.21.26l0,.25a.47.47,0,0,1-.2.33A.37.37,0,0,1,9.74,4.22Zm.33-.56,0-.12c0-.12,0-.18-.13-.18s-.11,0-.12.13l0,.14c0,.1,0,.15.11.15A.13.13,0,0,0,10.07,3.66Z"/><path d="M10.85,3.94h-.53l0-.12h0a1.65,1.65,0,0,0,.25-.15c.08-.06.11-.09.12-.14h0s0-.1-.13-.1a.25.25,0,0,0-.16.05h0l.08-.14h0a.4.4,0,0,1,.17,0c.17,0,.24.08.23.18h0c0,.09-.07.12-.23.23l-.14.11h.23c.09,0,.13,0,.16,0l0,0-.07.15Z"/><path d="M11,3.87c0-.08,0-.11.11-.11s.07,0,.07.06a.12.12,0,0,1-.11.13S11,3.92,11,3.87Z"/><path d="M11.5,4.32l-.17-.09.11-.67c0-.11,0-.16-.07-.17v0l.13-.07h0a.12.12,0,0,1,.09.11.25.25,0,0,1,.2-.1c.16,0,.22.09.2.24v.1a.3.3,0,0,1-.16.22.38.38,0,0,1-.24.07h0l0,.26.05,0h0Zm.06-.5a.22.22,0,0,0,.12,0c.08,0,.11,0,.13-.12l0-.15c0-.12,0-.15-.11-.15s-.11,0-.12.11Z"/><path d="M12.11,3.93h0V3.8h0a.52.52,0,0,0,.23.05c.06,0,.07,0,.08-.07s0-.08-.07-.08h-.07c-.11,0-.16,0-.15-.15s0-.11.13-.17a.35.35,0,0,1,.16-.06h.17l0,.06s0,0,0,0l-.17,0s-.05,0-.06.08,0,.07.06.07h.07c.12,0,.17,0,.15.15s0,.11-.12.17a.35.35,0,0,1-.18.06Z"/><path d="M13.18,4h0a.15.15,0,0,1-.09-.12.24.24,0,0,1-.2.09c-.14,0-.21-.09-.19-.24V3.62a.27.27,0,0,1,.16-.23.37.37,0,0,1,.23-.07h.05V3.25a1.32,1.32,0,0,0,0-.22H13.1V3h.24l-.11.76c0,.11,0,.15.06.17h0ZM13,3.84a.11.11,0,0,0,.12-.11l0-.29a.27.27,0,0,0-.12,0c-.08,0-.12,0-.13.13l0,.15C12.83,3.81,12.87,3.84,13,3.84Z"/></svg>