<svg xmlns="http://www.w3.org/2000/svg" viewBox="0 0 32.42 11.29"><title>fonts</title><path d="M31.53,7.94a3.41,3.41,0,0,0,0-4.57h0a5.16,5.16,0,0,1-.87-1.92V0H1.74V1.42a5.25,5.25,0,0,1-.91,2l-.08.1,0,0,0,.08a3.43,3.43,0,0,0-.66,2A3.37,3.37,0,0,0,.7,7.71v0h0a1.19,1.19,0,0,0,.15.18,5.33,5.33,0,0,1,.87,2v1.42H30.68V9.84A5.13,5.13,0,0,1,31.53,7.94Z" style="fill:#ec1b2f"/><path d="M5.74,3.5l-.38,0a.82.82,0,0,0-.29.08.79.79,0,0,0-.22.19,1,1,0,0,0-.18.32h0l0,0a1.8,1.8,0,0,1,.08-.21,1.42,1.42,0,0,1,.11-.18A.67.67,0,0,1,5,3.55a.33.33,0,0,1,.16-.07.78.78,0,0,1,.22,0h.88a1.12,1.12,0,0,0,.5-.11.35.35,0,0,0,.12-.1.18.18,0,0,0,.06-.13v0a0,0,0,0,1,0,0v0s0,0,0,0a.35.35,0,0,1,.08.1.43.43,0,0,1,0,0,.17.17,0,0,1,0,0,.32.32,0,0,1-.2.16,1.3,1.3,0,0,1-.32.06H6.18a.09.09,0,0,0-.08,0c-.15.22-.28.44-.41.65s-.23.42-.34.6a1.12,1.12,0,0,0,0,.13.22.22,0,0,0,0,.1.13.13,0,0,0,0,.06.09.09,0,0,0,0,.06l.08,0h.24s0,0,0,0H5.11L5,5.17a.11.11,0,0,1,0-.08A.19.19,0,0,1,5,5a.36.36,0,0,1,0-.09l.22-.35.21-.36.2-.35.19-.33s0,0,0,0Z" style="fill:#fad5e5"/><path d="M8.63,2.6a.31.31,0,0,1,0,.1s0,0,0,0h0v0a.25.25,0,0,0,0-.07.31.31,0,0,0-.05-.1.62.62,0,0,0-.12-.08.5.5,0,0,0-.19,0,.76.76,0,0,0-.21,0,.68.68,0,0,0-.24.12,1.66,1.66,0,0,0-.27.23,2.79,2.79,0,0,0-.31.39,5.38,5.38,0,0,0-.37.58c-.13.23-.28.49-.44.8l.09-.07.13-.09.14-.08a.19.19,0,0,1,.11,0s0,0,0,0a.13.13,0,0,1,0,.07,1.05,1.05,0,0,0-.08.13.77.77,0,0,0-.1.18l-.09.18a.49.49,0,0,0,0,.15.11.11,0,0,0,.12.12.46.46,0,0,0,.25-.11,2,2,0,0,0,.38-.41h0a1.46,1.46,0,0,1-.17.22l-.21.19a1.86,1.86,0,0,1-.2.14.53.53,0,0,1-.2,0,.14.14,0,0,1-.14-.14.37.37,0,0,1,0-.16,1.86,1.86,0,0,1,.1-.2c0-.07.07-.13.09-.19a.28.28,0,0,0,0-.12v0s-.07,0-.13.07a1.49,1.49,0,0,0-.23.25L6.19,5l-.1.19s0,.06-.06.06H6s0,0,0,0a.08.08,0,0,1,0,0l.32-.57L6.6,4l.4-.6a5.07,5.07,0,0,1,.41-.56,2.32,2.32,0,0,1,.43-.41.75.75,0,0,1,.44-.16H8.4l.11,0a.76.76,0,0,1,.09.09A.33.33,0,0,1,8.63,2.6Z" style="fill:#fad5e5"/><path d="M8.1,4.73a1.25,1.25,0,0,1-.16.17,1,1,0,0,1-.2.16,1.19,1.19,0,0,1-.22.12.68.68,0,0,1-.23.05c-.13,0-.19-.06-.19-.17a.6.6,0,0,1,.06-.24.83.83,0,0,1,.15-.23.64.64,0,0,1,.19-.18.43.43,0,0,1,.21-.08l.08,0s0,0,0,.05a.23.23,0,0,1,0,.11.41.41,0,0,1-.09.1.53.53,0,0,1-.15.08.48.48,0,0,1-.22,0l0,.11a.78.78,0,0,0,0,.16c0,.1,0,.16.14.16a.45.45,0,0,0,.19,0L7.78,5,8,4.86l.12-.14h0S8.1,4.72,8.1,4.73Zm-.41-.31a0,0,0,0,0-.05,0,.11.11,0,0,0-.08,0l-.09.08a.86.86,0,0,0-.07.1l-.06.11H7.4a.27.27,0,0,0,.2-.09A.23.23,0,0,0,7.69,4.42Z" style="fill:#fad5e5"/><path d="M9.63,5.22C9.21,5.22,9,5.14,9,5A.17.17,0,0,1,9,4.9h.4s0,0,0,0,.08,0,.23,0,.2,0,.2-.05,0,0-.18,0l-.21,0c-.28,0-.44-.1-.44-.27s.2-.29.57-.29.53.07.59.23a.29.29,0,0,1,0,.09H9.78a.05.05,0,0,0,0,0s-.07,0-.18,0-.19,0-.19,0,0,0,.17,0l.27,0c.26,0,.38.09.38.26S10,5.22,9.63,5.22Z" style="fill:#fad5e5"/><path d="M11.6,5a.57.57,0,0,1-.46.19.56.56,0,0,1-.38-.11v.38h-.4V4.33h.39v.12a.65.65,0,0,1,.85,0,.46.46,0,0,1,.08.27A.45.45,0,0,1,11.6,5Zm-.36-.37A.29.29,0,0,0,11,4.58a.26.26,0,0,0-.22.07.15.15,0,0,0,0,.11.2.2,0,0,0,0,.11A.29.29,0,0,0,11,5c.12,0,.2,0,.23-.09a.17.17,0,0,0,0-.1A.2.2,0,0,0,11.24,4.65Z" style="fill:#fad5e5"/><path d="M13,5a.78.78,0,0,1-.59.19A.74.74,0,0,1,11.86,5a.42.42,0,0,1-.09-.27.37.37,0,0,1,.09-.25.75.75,0,0,1,.58-.21c.35,0,.57.14.63.35a.64.64,0,0,1,0,.2h-.94a.14.14,0,0,0,.05.08.35.35,0,0,0,.23.06.38.38,0,0,0,.19,0s0,0,0,0h.41A.34.34,0,0,1,13,5Zm-.37-.43a.44.44,0,0,0-.46,0,.09.09,0,0,0,0,.06h.53A.09.09,0,0,0,12.66,4.6Z" style="fill:#fad5e5"/><path d="M14.1,4.72a.07.07,0,0,0,0-.06.26.26,0,0,0-.23-.09.33.33,0,0,0-.24.08.2.2,0,0,0,0,.11.21.21,0,0,0,0,.12.31.31,0,0,0,.24.07.29.29,0,0,0,.22-.06.11.11,0,0,0,0-.06h.38a.31.31,0,0,1-.07.2.68.68,0,0,1-.56.19A.75.75,0,0,1,13.26,5a.46.46,0,0,1-.08-.27.41.41,0,0,1,.08-.25.75.75,0,0,1,.59-.21.61.61,0,0,1,.58.24.37.37,0,0,1,.05.18Z" style="fill:#fad5e5"/><path d="M15.12,4.63v.22c0,.07,0,.09.12.09h.16v.25a1.22,1.22,0,0,1-.33,0c-.18,0-.36-.07-.36-.3V4.63h-.17V4.34h.17a1.87,1.87,0,0,0,0-.21h.39v.21h.3v.29Z" style="fill:#fad5e5"/><path d="M16.41,5.2s0,0,0-.07a.81.81,0,0,1-.45.09c-.26,0-.42-.08-.43-.24v0c0-.16.18-.27.57-.27h.3a.14.14,0,0,0,0-.06.25.25,0,0,0-.19-.06.36.36,0,0,0-.18,0l0,0h-.39a.84.84,0,0,1,0-.12c.08-.15.29-.22.58-.22s.52.1.57.26a.47.47,0,0,1,0,.21V5a.88.88,0,0,0,0,.2Zm-.28-.35c-.13,0-.21,0-.21.08S16,5,16.1,5s.27-.06.29-.13Z" style="fill:#fad5e5"/><path d="M17.85,4.72a.14.14,0,0,0,0-.06.28.28,0,0,0-.23-.09.3.3,0,0,0-.24.08.21.21,0,0,0,0,.11.16.16,0,0,0,0,.12A.3.3,0,0,0,17.6,5q.16,0,.21-.06s0,0,0-.06h.38a.48.48,0,0,1-.07.2.7.7,0,0,1-.56.19A.75.75,0,0,1,17,5a.4.4,0,0,1-.09-.27A.37.37,0,0,1,17,4.51a.73.73,0,0,1,.58-.21c.33,0,.5.1.58.24a.55.55,0,0,1,.06.18Z" style="fill:#fad5e5"/><path d="M18.8,5.2h-.4s0,0,0-.11v-1a.84.84,0,0,0,0-.12h.4s0,.06,0,.11v1A.2.2,0,0,0,18.8,5.2Z" style="fill:#fad5e5"/><path d="M20.21,5A1,1,0,0,1,19,5,.42.42,0,0,1,19,4.76a.37.37,0,0,1,.1-.25.72.72,0,0,1,.58-.21c.34,0,.57.14.63.35a.44.44,0,0,1,0,.2h-.93a.1.1,0,0,0,0,.08.33.33,0,0,0,.23.06.45.45,0,0,0,.19,0l.05,0h.4A.23.23,0,0,1,20.21,5Zm-.36-.43a.4.4,0,0,0-.23-.06.35.35,0,0,0-.23.07s0,0,0,.06h.53A.11.11,0,0,0,19.85,4.6Z" style="fill:#fad5e5"/><path d="M21.65,5.22a.31.31,0,0,1-.32-.31V4s0,0,.05,0h.06s0,0,0,0V4.3s0,0,0,0l.14,0c.19,0,.32.1.32.27a.23.23,0,0,1-.08.18s0,0,0,0A.23.23,0,0,1,22,5C22,5.12,21.84,5.22,21.65,5.22Zm0-.4a0,0,0,0,1,0,0v0a0,0,0,0,1,0,0c.07,0,.19,0,.19-.13s-.07-.13-.17-.13a.17.17,0,0,0-.17.17v.31a.17.17,0,0,0,.17.17c.1,0,.17,0,.17-.13S21.7,4.82,21.63,4.82Z" style="fill:#fad5e5"/><path d="M22.66,4.82H22.3s0,0,0,0v0a.17.17,0,0,0,.17.17A.24.24,0,0,0,22.62,5s0,0,.06,0l0,0a0,0,0,0,1,0,.06.34.34,0,0,1-.3.17.31.31,0,0,1-.32-.31V4.6a.31.31,0,0,1,.32-.31.31.31,0,0,1,.31.31v.13C22.74,4.79,22.71,4.82,22.66,4.82ZM22.6,4.6a.18.18,0,0,0-.17-.17.17.17,0,0,0-.17.17v.05s0,0,0,0h.25s.05,0,.05,0Z" style="fill:#fad5e5"/><path d="M23.58,4.1s0,0-.06,0a.39.39,0,0,0-.2-.06.16.16,0,0,0-.17.17v0a0,0,0,0,0,0,0h.28s0,0,0,0v0s0,.05,0,.05h-.28a0,0,0,0,0,0,0v.68a0,0,0,0,1,0,0H23a0,0,0,0,1,0,0V4.48s0,0,0,0h0a0,0,0,0,1-.05-.05v0s0,0,.05,0h0a0,0,0,0,0,0,0v0a.31.31,0,0,1,.32-.31.45.45,0,0,1,.27.09s0,0,0,0Z" style="fill:#fad5e5"/><path d="M24,5.22a.31.31,0,0,1-.32-.31V4.6a.32.32,0,0,1,.64,0v.31A.31.31,0,0,1,24,5.22Zm.17-.62a.17.17,0,0,0-.34,0v.31a.17.17,0,0,0,.34,0Z" style="fill:#fad5e5"/><path d="M25.07,4.48a0,0,0,0,1-.06,0,.39.39,0,0,0-.2-.06.17.17,0,0,0-.17.17v.56s0,0-.05,0h-.06s0,0,0,0V4.6a.31.31,0,0,1,.32-.31.48.48,0,0,1,.27.09s0,0,0,.06Z" style="fill:#fad5e5"/><path d="M25.76,4.82H25.4s0,0,0,0v0a.17.17,0,0,0,.17.17A.24.24,0,0,0,25.72,5s0,0,.06,0l0,0a0,0,0,0,1,0,.06.34.34,0,0,1-.3.17.31.31,0,0,1-.32-.31V4.6a.32.32,0,0,1,.64,0v.13A.08.08,0,0,1,25.76,4.82ZM25.7,4.6a.17.17,0,0,0-.34,0v.05s0,0,0,0h.25s.05,0,.05,0Z" style="fill:#fad5e5"/><path d="M26.92,3.85v1c0,.1,0,.13.11.13s.11,0,.11-.13v-1h.2v1a.3.3,0,0,1-.32.34c-.21,0-.31-.13-.31-.34v-1Z" style="fill:#fad5e5"/><path d="M27.77,3.84a.29.29,0,0,1,.31.33v0h-.2V4.16c0-.1,0-.13-.11-.13s-.1,0-.1.13c0,.28.41.33.41.72a.32.32,0,1,1-.63,0V4.79h.2v.1c0,.1,0,.13.11.13s.11,0,.11-.13c0-.28-.41-.33-.41-.72C27.46,4,27.56,3.84,27.77,3.84Z" style="fill:#fad5e5"/><path d="M5,8.11c-.16.15-.3.1-.3-.15l-.16.15c-.21.19-.39.05-.26-.43a2.61,2.61,0,0,0,.1-.44c.06,0,.24,0,.23.1a2.5,2.5,0,0,1-.09.36c-.07.28-.12.5,0,.36a1.32,1.32,0,0,0,.25-.58c0-.18.14-.22.16-.22s.13,0,.12.09a.72.72,0,0,1-.12.3v0c-.08.28-.08.5.06.36a1.33,1.33,0,0,0,.27-.74.35.35,0,0,1,0-.07c.06,0,.26,0,.25.1A1.58,1.58,0,0,1,5,8.11Z" style="fill:#fad5e5"/><path d="M6,7.34a.66.66,0,0,1,0-.09c.06,0,.26,0,.24.1s0,.12-.14.54c-.05.21,0,.21,0,.13a1.69,1.69,0,0,0,.16-.33q.06-.12.06-.06a.51.51,0,0,1,0,.11,1.59,1.59,0,0,1-.16.32c-.11.18-.31.17-.32-.09a.61.61,0,0,1-.07.1c-.19.25-.43,0-.32-.39S5.87,7.23,6,7.34Zm-.1.39h0v0L6,7.38c-.12-.1-.2.06-.27.32s-.06.49.06.33a.53.53,0,0,0,.11-.25.06.06,0,0,1,0,0Z" style="fill:#fad5e5"/><path d="M6.85,7.68,7,7.62s0,0,0,0l-.16.06a.5.5,0,0,1,0,.21.38.38,0,0,1-.44.27c-.11,0-.16-.2,0-.31l.22-.11a.49.49,0,0,0-.14-.31l-.15.35a.31.31,0,0,1,0,.09s0,0,0-.07.11-.28.15-.4l0,0a.16.16,0,0,1,0-.25c.06-.05.22,0,.22,0l-.08.2h0A1,1,0,0,1,6.85,7.68Zm-.21.13a1.09,1.09,0,0,0-.17.1c-.14.09-.11.21,0,.23s.14-.12.17-.25S6.64,7.84,6.64,7.81Z" style="fill:#fad5e5"/><path d="M8.67,8.18h-.4a0,0,0,0,1,0,0v0h.18l.07,0a.5.5,0,0,0,0-.12c0-.06,0-.14,0-.22a2.28,2.28,0,0,0,0-.27c0-.09,0-.18,0-.25v-.5a.22.22,0,0,0,0-.1.1.1,0,0,0-.07,0H8.42s-.05,0-.06,0h0s0,0,0,0a0,0,0,0,1,0,0h.78l0,0s0,0-.06,0H8.92s0,0,0,.09,0,.11,0,.19,0,.16,0,.25a2.26,2.26,0,0,0,0,.25c0,.06,0,.13,0,.2a1.55,1.55,0,0,0,0,.22,1.09,1.09,0,0,0,0,.19.14.14,0,0,0,0,.09h.26v0a0,0,0,0,1,0,0H8.67Z" style="fill:#fad5e5"/><path d="M9.3,8.13h.1l0,0a.06.06,0,0,0,0,0,.2.2,0,0,0,0-.09.71.71,0,0,0,0-.16c0-.07,0-.15,0-.25V7.2a2.27,2.27,0,0,0,0-.28,1,1,0,0,0,0-.19.64.64,0,0,0,0-.09.05.05,0,0,0,0,0H9.27a0,0,0,0,1,0,0v0h.5s0,0,0,0v.23a.24.24,0,0,1,.09-.08L10,6.62l.19-.07a.64.64,0,0,1,.2,0,1,1,0,0,1,.25,0,.55.55,0,0,1,.2.11.37.37,0,0,1,.13.17.66.66,0,0,1,0,.25,1.23,1.23,0,0,1,0,.19,1.17,1.17,0,0,1,0,.2,1.05,1.05,0,0,1-.05.19.7.7,0,0,0-.06.17c0,.06,0,.1,0,.14a.58.58,0,0,0,0,.1s0,0,0,0H11s0,0,0,0h0a0,0,0,0,1,0,0l0,0H10.5a0,0,0,0,1,0,0h0s0,0,0,0A.4.4,0,0,0,10.57,8c0-.06,0-.13,0-.21a2,2,0,0,0,0-.26,2.64,2.64,0,0,0,0-.28,1,1,0,0,0,0-.26.48.48,0,0,0-.09-.19.36.36,0,0,0-.14-.11.29.29,0,0,0-.16,0l-.16,0a.39.39,0,0,0-.14.08l-.12.11A.35.35,0,0,0,9.76,7a1,1,0,0,0,0,.11s0,.11,0,.18v.57a.37.37,0,0,0,0,.11.19.19,0,0,0,0,.08s0,0,0,0l0,0h.15v0H9.26s0,0,0,0v0l0,0Z" style="fill:#fad5e5"/><path d="M11.55,8.13l-.13.06a.35.35,0,0,1-.17,0h-.08a.05.05,0,0,1,0,0,0,0,0,0,1,0,0s0,0,0,0h0l0,0h.06a.11.11,0,0,0,.08,0A.18.18,0,0,0,11.43,8a.56.56,0,0,0,0-.1.76.76,0,0,0,0-.16,1.55,1.55,0,0,0,0-.22,1.85,1.85,0,0,0,0-.24c0-.2,0-.35,0-.46s0-.18,0-.19a.09.09,0,0,0-.06,0h-.17v0s0,0,0,0h.37l.11,0,.1,0,.12,0,.15,0a1.14,1.14,0,0,1,.39.06.71.71,0,0,1,.26.18.61.61,0,0,1,.15.24.76.76,0,0,1,.05.3,1.12,1.12,0,0,1-.06.35.92.92,0,0,1-.18.32.89.89,0,0,1-.28.23.75.75,0,0,1-.37.09h-.11l-.13,0-.13,0Zm.53,0a.48.48,0,0,0,.24-.07.55.55,0,0,0,.17-.17,1.33,1.33,0,0,0,.1-.24,1.33,1.33,0,0,0,0-.28,1.06,1.06,0,0,0,0-.31.76.76,0,0,0-.11-.26.69.69,0,0,0-.19-.19A.5.5,0,0,0,12,6.55H12l-.07,0a.18.18,0,0,0-.07,0,.09.09,0,0,0,0,.06.19.19,0,0,0,0,.08s0,.08,0,.12V7a1,1,0,0,0,0,.17,3.22,3.22,0,0,0,0,.33v.34a.11.11,0,0,1,0,0,.41.41,0,0,0,0,.08l.07.06a.33.33,0,0,0,.1.06Z" style="fill:#fad5e5"/><path d="M14.45,8.28a.25.25,0,0,0,0-.07,0,0,0,0,0,0,0h-.47a1.23,1.23,0,0,1-.35,0A.72.72,0,0,1,13.31,8a.63.63,0,0,1-.16-.24.78.78,0,0,1-.06-.31,1,1,0,0,1,.08-.4.65.65,0,0,1,.2-.28.64.64,0,0,1,.29-.16A1,1,0,0,1,14,6.54h.4s0,0,0,0a.29.29,0,0,1,0-.09.36.36,0,0,0,0-.09.07.07,0,0,1,.06,0l0,0s0,0,0,0a.24.24,0,0,0-.09.11,1.07,1.07,0,0,0-.06.17.34.34,0,0,0,0,.08s0,.08,0,.12,0,0,0,0,0,0,0,0a.25.25,0,0,0,0-.07.24.24,0,0,0-.09-.08l-.12-.06a.47.47,0,0,0-.17,0,.27.27,0,0,0-.18,0,.4.4,0,0,0-.15.14,1.24,1.24,0,0,0-.1.2.93.93,0,0,0,0,.23H14l.13,0,.11,0s.05,0,.06,0h0l0,.06a.64.64,0,0,0,0,.07l0,.1s0,.07,0,.11,0,0,0,0,0,0,0,0a.07.07,0,0,0,0-.06l-.09,0h-.67s0,.1,0,.15a.94.94,0,0,0,0,.16,1,1,0,0,0,.07.15.45.45,0,0,0,.1.14l.15.09a.54.54,0,0,0,.19,0l.19,0L14.33,8A.24.24,0,0,0,14.42,8a.15.15,0,0,0,.05-.07h0a0,0,0,0,1,0,0s0,0,0,0a.53.53,0,0,0,0,.13V8.2a.64.64,0,0,0,0,.09h0Z" style="fill:#fad5e5"/><path d="M16,8.28a.25.25,0,0,0,0-.07s0,0-.05,0h-.46a1.18,1.18,0,0,1-.35,0A.68.68,0,0,1,14.88,8a.63.63,0,0,1-.16-.24.78.78,0,0,1-.06-.31,1,1,0,0,1,.08-.4.75.75,0,0,1,.2-.28.67.67,0,0,1,.3-.16,1,1,0,0,1,.34-.06H16l0,0,0-.09a.36.36,0,0,1,0-.09.05.05,0,0,1,.05,0l.06,0s0,0,0,0a.53.53,0,0,0-.09.11,1.07,1.07,0,0,0-.06.17.15.15,0,0,0,0,.08l0,.12s0,0,0,0,0,0,0,0a.25.25,0,0,0,0-.07.24.24,0,0,0-.09-.08l-.12-.06a.41.41,0,0,0-.16,0,.3.3,0,0,0-.19,0,.4.4,0,0,0-.15.14,1.24,1.24,0,0,0-.1.2,1.85,1.85,0,0,0,0,.23h.58l.13,0,.1,0a.09.09,0,0,0,.06,0h0a.14.14,0,0,1,0,.06.25.25,0,0,1,0,.07.3.3,0,0,0,0,.1.37.37,0,0,0,0,.11s0,0,0,0l0,0a.07.07,0,0,0,0-.06l-.09,0H15a.76.76,0,0,0,0,.15.9.9,0,0,0,0,.16,1,1,0,0,0,.07.15.71.71,0,0,0,.1.14l.15.09a.56.56,0,0,0,.2,0l.18,0A.37.37,0,0,0,15.9,8,.39.39,0,0,0,16,8a.13.13,0,0,0,0-.07h0a0,0,0,0,1,0,0l0,0s0,.08,0,.13a.49.49,0,0,0,0,.12s0,.07,0,.09h0Z" style="fill:#fad5e5"/><path d="M16.58,8.13l-.13.06a.35.35,0,0,1-.17,0h-.07s0,0,0,0v0s0,0,0,0h0l0,0h.06l.09,0A.26.26,0,0,0,16.46,8a.22.22,0,0,0,0-.1s0-.1,0-.16a1.7,1.7,0,0,1,0-.22V7.32c0-.2,0-.35,0-.46s0-.18,0-.19a.06.06,0,0,0-.06,0h-.16s0,0,0,0,0,0,0,0h.37l.11,0,.11,0,.12,0,.15,0a1.08,1.08,0,0,1,.38.06.64.64,0,0,1,.26.18.78.78,0,0,1,.16.24,1,1,0,0,1,0,.3,1.12,1.12,0,0,1-.06.35.92.92,0,0,1-.18.32.79.79,0,0,1-.28.23.75.75,0,0,1-.37.09H17l-.14,0-.13,0Zm.54,0a.45.45,0,0,0,.23-.07.55.55,0,0,0,.17-.17.87.87,0,0,0,.1-.24,1.33,1.33,0,0,0,0-.28,1.55,1.55,0,0,0,0-.31,1,1,0,0,0-.12-.26.58.58,0,0,0-.19-.19A.5.5,0,0,0,17,6.55H17l-.07,0-.06,0a.09.09,0,0,0,0,.06s0,.05,0,.08a.49.49,0,0,0,0,.12.76.76,0,0,0,0,.15v.71a.45.45,0,0,0,0,.13v0l0,.08.06.06a.33.33,0,0,0,.1.06Z" style="fill:#fad5e5"/><path d="M20.39,7.64h-.17a.11.11,0,0,0,0-.06.1.1,0,0,0-.05,0l-.06,0h-.16a.05.05,0,0,0,0,0,.05.05,0,0,0,0,0,.15.15,0,0,0,.08,0l.1,0,.13,0a.23.23,0,0,1,.12.08.17.17,0,0,1,0,.13.28.28,0,0,1,0,.13l-.08.09-.11.05-.12,0h-.24l-.05,0H19.7l0,0h-.17l0-.27h.17a.06.06,0,0,0,0,.06.09.09,0,0,0,.06,0l.09,0h.17s0,0,0-.06,0,0,0,0l-.06,0-.1,0-.11,0a.27.27,0,0,1-.16-.09.21.21,0,0,1,0-.15.18.18,0,0,1,0-.1.24.24,0,0,1,.06-.09l.11-.06.15,0h.12l.07,0,.05,0h0l.06,0h.15Z" style="fill:#fad5e5"/><path d="M21.59,8s0,.06.12.06l0,.16h-.5l0-.15a.48.48,0,0,1-.16.13.67.67,0,0,1-.22,0,.2.2,0,0,1-.14,0A.14.14,0,0,1,20.65,8V8l.07-.36s0-.06-.13-.06l0-.16h.49L21,7.77s0,.07,0,.09,0,.11.07.11a.14.14,0,0,0,.09,0,.5.5,0,0,0,.07-.13l0-.19s0-.06-.09-.06l0-.16h.46Z" style="fill:#fad5e5"/><path d="M22.35,7.44a.39.39,0,0,1,.28-.09h.11l.09,0,.06.1a.63.63,0,0,1,0,.16,1.11,1.11,0,0,1,0,.17,1.34,1.34,0,0,1-.07.18.44.44,0,0,1-.14.13.32.32,0,0,1-.2.06l-.11,0-.09,0-.05-.06,0-.06-.07.14h-.28l.17-1s0-.06-.12-.06l0-.16h.5Zm.09.09a.13.13,0,0,0-.09,0,.16.16,0,0,0-.06.08l0,.11a.38.38,0,0,0,0,.1.16.16,0,0,0,0,.11.11.11,0,0,0,.08,0,.13.13,0,0,0,.1,0,.19.19,0,0,0,.05-.09l0-.11v-.1s0-.08,0-.1A.1.1,0,0,0,22.44,7.53Z" style="fill:#fad5e5"/><path d="M23.49,8s0,.06.12.06l0,.16H23L23,8c.09,0,.13,0,.14-.08l.13-.75s0-.06-.12-.06l0-.16h.5Z" style="fill:#fad5e5"/><path d="M24.25,8s0,.06.12.06l0,.16h-.64l0-.16c.09,0,.14,0,.14-.08l.06-.34s0-.06-.12-.06l0-.16h.5Zm.15-.83a.14.14,0,0,1,0,.07.09.09,0,0,1,0,.06.1.1,0,0,1-.05,0l-.08,0-.07,0a.1.1,0,0,1-.05,0,.09.09,0,0,1,0-.06.14.14,0,0,1,0-.07.19.19,0,0,1,0-.07l0-.06.05,0h.15l.05,0,0,.06A.19.19,0,0,1,24.4,7.13Z" style="fill:#fad5e5"/><path d="M26.15,8s0,.06.11.06l0,.16h-.56l0-.16s.07,0,.08-.08l0-.15a.31.31,0,0,0,0-.09c0-.07,0-.1-.05-.1s-.12.06-.17.18l0,.18a.05.05,0,0,0,0,0l0,0,0,.16h-.5l0-.16s.07,0,.08-.08l0-.15s0-.07,0-.1,0-.09-.06-.09-.12.06-.16.18L25,8s0,0,.06,0l0,.16h-.55l0-.16c.08,0,.12,0,.13-.08l.06-.33h0s0-.06-.11-.06l0-.16h.49l0,.16a.39.39,0,0,1,.34-.18.29.29,0,0,1,.17,0,.15.15,0,0,1,.06.13.5.5,0,0,1,.16-.14.41.41,0,0,1,.19,0,.31.31,0,0,1,.17,0,.16.16,0,0,1,.06.14.11.11,0,0,1,0,0Z" style="fill:#fad5e5"/><path d="M26.79,7.8v0a.31.31,0,0,0,0,.1.11.11,0,0,0,0,.06.05.05,0,0,0,.05,0H27L27,8l0,0a.1.1,0,0,0,0,0h.17L27.24,8a.43.43,0,0,1-.1.09.4.4,0,0,1-.13.07.38.38,0,0,1-.16,0l-.17,0a.31.31,0,0,1-.13-.06A.24.24,0,0,1,26.46,8a.48.48,0,0,1,0-.18.45.45,0,0,1,0-.2.36.36,0,0,1,.11-.16.48.48,0,0,1,.17-.1.78.78,0,0,1,.22,0,.5.5,0,0,1,.18,0,.23.23,0,0,1,.12.06.21.21,0,0,1,.06.1.27.27,0,0,1,0,.13v.07s0,0,0,.07Zm.28-.14a.13.13,0,0,0,0-.1s0,0,0,0l0,0H27a.11.11,0,0,0-.1,0l-.06.13Z" style="fill:#fad5e5"/><path d="M27.72,8h0a.09.09,0,0,1,.07,0,.13.13,0,0,1,0,.14.09.09,0,0,1-.07,0h0a.09.09,0,0,1-.07,0,.13.13,0,0,1,0-.14A.09.09,0,0,1,27.72,8Z" style="fill:#fad5e5"/></svg>