<svg xmlns="http://www.w3.org/2000/svg" viewBox="0 0 10.37 10.81"><title>hello</title><path d="M5.86.27l.42.4a1,1,0,0,0,.8.26L7.66.85a1,1,0,0,1,1.09.79l.11.58a1,1,0,0,0,.49.68l.51.28a1,1,0,0,1,.42,1.28L10,5a1,1,0,0,0,0,.84l.25.53a1,1,0,0,1-.42,1.28l-.51.28a1,1,0,0,0-.49.68l-.11.57A1,1,0,0,1,7.66,10l-.58-.07a1,1,0,0,0-.8.26l-.42.4a1,1,0,0,1-1.35,0l-.42-.4a1,1,0,0,0-.8-.26L2.71,10a1,1,0,0,1-1.09-.79l-.1-.57A1,1,0,0,0,1,7.91L.51,7.63A1,1,0,0,1,.09,6.35l.25-.53A1,1,0,0,0,.34,5L.09,4.46A1,1,0,0,1,.51,3.18L1,2.9a1,1,0,0,0,.5-.68l.1-.58A1,1,0,0,1,2.71.85l.58.08a1,1,0,0,0,.8-.26l.42-.4A1,1,0,0,1,5.86.27Z" style="fill:#f49cbe"/><path d="M3.15,4.93H2.61V4.84h.12c.06-.39.12-.78.16-1.16H2.78V3.57h.52l0,.09H3.17c0,.17,0,.33-.07.49h.52l.09.06c0-.19,0-.37.07-.55H3.66V3.57h.51v.09H4.05c-.06.39-.12.78-.16,1.16H4l0,.1H3.49V4.84h.12c0-.18,0-.36.08-.54H3.08c0,.18-.05.36-.07.54h.11l0,.1Z" style="fill:#231f20"/><path d="M4.59,5c-.28,0-.4-.12-.37-.37l0-.14a.44.44,0,0,1,.25-.35A.48.48,0,0,1,4.76,4C5,4,5,4.08,5,4.22a1.12,1.12,0,0,1,0,.22l-.19.08H4.46v.05c0,.17.06.23.25.23A.51.51,0,0,0,5,4.71H5v0A.49.49,0,0,1,4.59,5Zm-.11-.54H4.8a1,1,0,0,0,0-.15c0-.09-.06-.13-.17-.13s-.14,0-.15.15Z" style="fill:#231f20"/><path d="M5.2,4.75l.13-.85c0-.2,0-.29,0-.32H5.26V3.48h.36L5.44,4.71c0,.07,0,.09.11.09a.22.22,0,0,0,.11,0h0v0A.32.32,0,0,1,5.39,5C5.24,5,5.18,4.89,5.2,4.75Z" style="fill:#231f20"/><path d="M5.8,4.75l.13-.85c0-.2,0-.29,0-.32H5.86V3.48h.37L6.05,4.71c0,.07,0,.09.1.09a.22.22,0,0,0,.11,0h0v0A.34.34,0,0,1,6,5C5.85,5,5.78,4.89,5.8,4.75Z" style="fill:#231f20"/><path d="M6.39,4.59l0-.16a.45.45,0,0,1,.24-.34A.58.58,0,0,1,6.93,4c.26,0,.37.11.33.36l0,.15A.42.42,0,0,1,7,4.85a.53.53,0,0,1-.28.1C6.46,5,6.35,4.84,6.39,4.59Zm.6,0,0-.24c0-.19,0-.25-.2-.25s-.14.05-.16.17l0,.25c0,.19,0,.25.2.25S7,4.76,7,4.63Z" style="fill:#231f20"/><path d="M7.32,5.23h0a.39.39,0,0,0,.18-.29c-.07,0-.12,0-.12-.1s0-.17.15-.17.12,0,.12.12a.55.55,0,0,1-.26.48Z" style="fill:#231f20"/><path d="M3.3,7.06h0L3.2,6.42A4.9,4.9,0,0,1,2.93,7l-.22.06h0l-.07-.63a.58.58,0,0,0,0-.17H2.52V6.14l.29,0h0s0,.08.06.27l0,.46a3.12,3.12,0,0,0,.27-.69l.2,0h0l.1.74a1.59,1.59,0,0,0,.22-.72h0l.21,0h0a3.16,3.16,0,0,1-.43.9Z" style="fill:#231f20"/><path d="M4,6.69l0-.15a.45.45,0,0,1,.24-.34.53.53,0,0,1,.28-.1c.26,0,.37.12.34.36l0,.16A.45.45,0,0,1,4.6,7a.62.62,0,0,1-.29.09C4.06,7.05,4,6.94,4,6.69Zm.6,0,0-.25c0-.19-.06-.25-.2-.25s-.15,0-.16.18l0,.25c0,.18.06.24.2.24S4.57,6.86,4.58,6.74Z" style="fill:#231f20"/><path d="M5,7.06H5l.09-.56c0-.17,0-.24-.09-.25v0L5.2,6.1h0a.22.22,0,0,1,.14.24c.08-.18.12-.22.26-.22h.12l0,.12c0,.08,0,.09-.08.09h-.1c-.09,0-.14.06-.17.28L5.28,7h0Z" style="fill:#231f20"/><path d="M5.79,6.85,5.92,6c0-.19,0-.28,0-.32H5.84l0-.08.36,0h0L6,6.82c0,.06,0,.09.11.09a.19.19,0,0,0,.1,0h0v0A.36.36,0,0,1,6,7.05C5.83,7.05,5.76,7,5.79,6.85Z" style="fill:#231f20"/><path d="M7.1,7.1h0A.21.21,0,0,1,7,6.92a.39.39,0,0,1-.3.13.27.27,0,0,1-.29-.35l0-.14a.43.43,0,0,1,.23-.34A.66.66,0,0,1,7,6.11H7l0-.11c0-.19,0-.28,0-.32H7V5.59l.36,0h0L7.19,6.71c0,.17,0,.24.09.25V7Zm-.33-.21c.11,0,.16,0,.18-.16L7,6.29a.34.34,0,0,0-.18,0c-.12,0-.17,0-.2.2l0,.21C6.58,6.85,6.64,6.89,6.77,6.89Z" style="fill:#231f20"/><path d="M7.48,7c0-.11,0-.16.15-.16s.1,0,.1.09,0,.17-.15.17S7.48,7,7.48,7Zm.11-.27.08-1h0l.23,0h0l-.22,1-.1,0Z" style="fill:#231f20"/></svg>