<svg xmlns="http://www.w3.org/2000/svg" viewBox="0 0 16.28 6.49"><title>hmw</title><rect width="16.28" height="6.49" rx="3.25" ry="3.25" style="fill:#facb0c"/><path d="M4.11,2.74V1.85h.18v.34h.34V1.85h.19v.89H4.63v-.4H4.29v.4Z" style="fill:#ec1b2f"/><path d="M5.53,2.66a.34.34,0,0,1-.25.1A.35.35,0,0,1,5,2.66a.41.41,0,0,1-.08-.25A.38.38,0,0,1,5,2.17a.32.32,0,0,1,.26-.11.31.31,0,0,1,.25.11.38.38,0,0,1,.08.24A.41.41,0,0,1,5.53,2.66Zm-.14-.1a.21.21,0,0,0,0-.15.22.22,0,0,0,0-.15.13.13,0,0,0-.12,0,.12.12,0,0,0-.11,0,.22.22,0,0,0,0,.15.21.21,0,0,0,0,.15.13.13,0,0,0,.11.06A.14.14,0,0,0,5.39,2.56Z" style="fill:#ec1b2f"/><path d="M6,2.08h.17l.1.47.1-.47h.18l-.19.66H6.23l-.11-.48L6,2.74H5.84l-.18-.66h.18L6,2.55Z" style="fill:#ec1b2f"/><path d="M7.84,2.09l.08.05a.14.14,0,0,1,0,.09.22.22,0,0,1,0,.09v.42H7.78V2.32a.13.13,0,0,0,0-.06.08.08,0,0,0-.08,0,.1.1,0,0,0-.1.06.19.19,0,0,0,0,.08v.39H7.41V2.35a.2.2,0,0,0,0-.09s0,0-.08,0a.11.11,0,0,0-.1,0,.19.19,0,0,0,0,.08v.4H7V2.08h.17v.1a.22.22,0,0,1,.06-.07.18.18,0,0,1,.13,0,.21.21,0,0,1,.12,0l.06.08a.15.15,0,0,1,.08-.08.21.21,0,0,1,.12,0A.12.12,0,0,1,7.84,2.09Z" style="fill:#ec1b2f"/><path d="M8.29,2H8.12V1.85h.17Zm-.17.07h.17v.66H8.12Z" style="fill:#ec1b2f"/><path d="M8.78,2.08a.19.19,0,0,1,.1.1v-.1h.17V2.7a.41.41,0,0,1,0,.19A.31.31,0,0,1,8.73,3a.33.33,0,0,1-.21,0,.19.19,0,0,1-.09-.14h.19a.05.05,0,0,0,0,0s0,0,.1,0a.12.12,0,0,0,.12-.06.35.35,0,0,0,0-.13v0s0,0-.05.06a.21.21,0,0,1-.14,0,.25.25,0,0,1-.2-.09.36.36,0,0,1-.07-.24.36.36,0,0,1,.07-.24.24.24,0,0,1,.21-.1Zm.06.47a.2.2,0,0,0,0-.14.18.18,0,0,0,0-.14.1.1,0,0,0-.1,0,.13.13,0,0,0-.13.08.37.37,0,0,0,0,.11.16.16,0,0,0,0,.1.12.12,0,0,0,.12.09A.14.14,0,0,0,8.84,2.55Z" style="fill:#ec1b2f"/><path d="M9.68,2.09a.16.16,0,0,1,.08.06.13.13,0,0,1,0,.08.35.35,0,0,1,0,.12v.39H9.62v-.4a.22.22,0,0,0,0-.09.1.1,0,0,0-.09,0,.11.11,0,0,0-.1,0,.18.18,0,0,0,0,.13v.36H9.21V1.86h.17v.31a.14.14,0,0,1,.09-.08.16.16,0,0,1,.1,0A.22.22,0,0,1,9.68,2.09Z" style="fill:#ec1b2f"/><path d="M9.89,2.21V2.09H10V1.91h.17v.18h.11v.12h-.11v.35a.07.07,0,0,0,0,0h.1v.13h-.08a.21.21,0,0,1-.17,0,.12.12,0,0,1,0-.09v-.4Z" style="fill:#ec1b2f"/><path d="M11,2.08h.17l.1.47.1-.47h.18l-.19.66H11.2l-.1-.48-.1.48h-.18l-.18-.66h.18l.1.47Z" style="fill:#ec1b2f"/><path d="M12.09,2.1a.31.31,0,0,1,.11.09.34.34,0,0,1,.05.14.45.45,0,0,1,0,.13h-.48a.21.21,0,0,0,.07.14l.1,0a.14.14,0,0,0,.09,0l0,0h.18a.34.34,0,0,1-.06.12.3.3,0,0,1-.25.1.38.38,0,0,1-.23-.08.31.31,0,0,1-.1-.26.34.34,0,0,1,.09-.26.32.32,0,0,1,.23-.09A.41.41,0,0,1,12.09,2.1Zm-.26.14a.18.18,0,0,0,0,.1h.29a.18.18,0,0,0,0-.1.2.2,0,0,0-.11,0A.17.17,0,0,0,11.83,2.24Z" style="fill:#ec1b2f"/><path d="M4,4.47V4.41H4.7v.06Z" style="fill:#ec1b2f"/><path d="M4.6,4.47V4.41h.68v.06Z" style="fill:#ec1b2f"/><path d="M5.18,4.47V4.41h.69v.06Z" style="fill:#ec1b2f"/><path d="M5.77,4.47V4.41h.68v.06Z" style="fill:#ec1b2f"/><path d="M6.24,4.47V4.41h.69v.06Z" style="fill:#ec1b2f"/><path d="M6.72,4.47V4.41H7.4v.06Z" style="fill:#ec1b2f"/><path d="M7.3,4.47V4.41H8v.06Z" style="fill:#ec1b2f"/><path d="M7.89,4.47V4.41h.68v.06Z" style="fill:#ec1b2f"/><path d="M8.33,4.47V4.41H9v.06Z" style="fill:#ec1b2f"/><path d="M8.78,4.47V4.41h.69v.06Z" style="fill:#ec1b2f"/><path d="M9.23,4.47V4.41h.69v.06Z" style="fill:#ec1b2f"/><path d="M9.82,4.47V4.41h.68v.06Z" style="fill:#ec1b2f"/><path d="M10.4,4.47V4.41h.69v.06Z" style="fill:#ec1b2f"/><path d="M11,4.47V4.41h.68v.06Z" style="fill:#ec1b2f"/><path d="M11.76,3.47a.35.35,0,0,1,.18-.05.32.32,0,0,1,.22.07.21.21,0,0,1,.09.19.2.2,0,0,1,0,.13l-.08.08-.05,0A.1.1,0,0,0,12,4s0,0,0,.07h-.16a.37.37,0,0,1,0-.14A.16.16,0,0,1,12,3.83l0,0s0,0,0,0a.11.11,0,0,0,0-.07.16.16,0,0,0,0-.09.13.13,0,0,0-.1,0,.1.1,0,0,0-.09,0,.19.19,0,0,0,0,.1h-.18A.3.3,0,0,1,11.76,3.47Zm.1.67H12v.17h-.18Z" style="fill:#ec1b2f"/></svg>