<svg xmlns="http://www.w3.org/2000/svg" viewBox="0 0 11 11"><title>luck</title><rect x="1.61" y="1.61" width="7.77" height="7.77" transform="translate(5.5 13.27) rotate(-135)" style="fill:#ec1b2f"/><path d="M5.5,10.66l0-.05L.34,5.5,5.5.34,10.66,5.5ZM.53,5.5l5,5,5-5-5-5Z" style="fill:#facb0c"/><path d="M6.37,6.2V6.11a1.47,1.47,0,0,1,.55-.23h0a.36.36,0,0,1,.2.06.61.61,0,0,1,.32.57.88.88,0,0,1-.23.57.76.76,0,0,1-.55.24.75.75,0,0,1-.21,0l-.08-.14.1-.23h0c0,.17.09.29.28.29s.39-.3.39-.54A.68.68,0,0,0,7,6.19a.47.47,0,0,0-.32-.12H6.6c0,.13,0,.26,0,.38h.29l-.07.11H6.32A1.37,1.37,0,0,0,6.37,6.2Z" style="fill:#facb0c"/><path d="M5.47,6.64v0a.88.88,0,0,1,.33-.68.21.21,0,0,1,.13-.05H6a.39.39,0,0,1,.19.37h0a.77.77,0,0,1-.06.3c-.05.09-.14.22-.25.24S5.75,7,5.67,7s-.06,0-.09,0a.46.46,0,0,1-.11-.3Zm.14-.24a.4.4,0,0,0,.23.39A.54.54,0,0,0,6,6.4H6c0-.11-.06-.31-.21-.31s-.17.2-.17.31h0Z" style="fill:#facb0c"/><path d="M4.66,6.64v0A.82.82,0,0,1,5,5.94a.17.17,0,0,1,.12-.05h.06a.4.4,0,0,1,.18.37h0a.77.77,0,0,1-.06.3A.42.42,0,0,1,5,6.82S4.93,7,4.86,7a.12.12,0,0,1-.1,0,.45.45,0,0,1-.1-.3ZM4.8,6.4A.38.38,0,0,0,5,6.79a.54.54,0,0,0,.15-.39h0c0-.11-.06-.31-.21-.31s-.17.2-.17.31h0Z" style="fill:#facb0c"/><path d="M3.56,6.1l.38-.2,0,0-.06.49a1.56,1.56,0,0,1,.16-.28c.07-.09.17-.24.3-.24s.16.16.16.26a.89.89,0,0,1-.34.69A.83.83,0,0,1,3.86,7c0,.21,0,.43,0,.65l-.24.08c.07-.43.12-.87.17-1.3,0,0,0-.07,0-.11s0-.17-.13-.17H3.56ZM4,6.88c.18,0,.26-.22.29-.36a1.26,1.26,0,0,0,0-.27s0-.15-.08-.15-.13.09-.16.14a1.14,1.14,0,0,0-.17.43c0,.06,0,.12,0,.19Z" style="fill:#facb0c"/><path d="M6.69,4.38l0-.39h1V4c-.1,0-.13.06-.15.16a.88.88,0,0,0,0,.17l0,.32c0,.16,0,.33,0,.49s0,.13.13.16v0H7.06v0c.09,0,.13-.05.15-.15a1.09,1.09,0,0,0,0-.18l0-.32c0-.2,0-.39,0-.59H7.2a.41.41,0,0,0-.45.31Z" style="fill:#facb0c"/><path d="M5.61,4.13,5.86,4l.08,0H6S6,4,6,4a.82.82,0,0,1,0,.22,2.22,2.22,0,0,1,0,.37c0-.06,0-.12.08-.17S6.32,4,6.47,4s.07.13.07.19h0a3.32,3.32,0,0,1-.1.77l-.23.1,0,0a1.71,1.71,0,0,0,.15-.63s0-.13,0-.13-.15.15-.19.21A2.22,2.22,0,0,0,5.91,5l-.21.09,0,0A2.27,2.27,0,0,0,5.8,4.4c0-.1,0-.24-.15-.24h0Z" style="fill:#facb0c"/><path d="M4.84,5l.1-.31H5c0,.08,0,.21.12.21s.2-.24.2-.36h0c0-.17-.06-.35-.27-.35l-.1,0v0L5.23,4l.08,0a.07.07,0,0,1,.06,0,.42.42,0,0,1,.13.33h0a.74.74,0,0,1-.57.72Z" style="fill:#facb0c"/><path d="M3.89,4.12A3.11,3.11,0,0,1,4.22,4s0,0,0,0a2.11,2.11,0,0,1,.12.43l0,0a.24.24,0,0,0-.25.26s0,.09.08.09.16-.09.2-.15A1.8,1.8,0,0,0,4.63,4h.15a16.07,16.07,0,0,0-.19,1.7l-.24.08c.06-.43.12-.87.2-1.3-.08.19-.29.58-.53.58-.09,0-.13-.1-.13-.18a.38.38,0,0,1,.29-.39.88.88,0,0,0-.07-.23A.19.19,0,0,0,4,4.15H3.9Z" style="fill:#facb0c"/><path d="M3.33,5.38c.08-.33.16-.66.22-1h.07c0,.13,0,.25,0,.38a5,5,0,0,0,0,.55Zm.11-1.26L3.64,4l.14.18-.2.16Z" style="fill:#facb0c"/></svg>