<svg xmlns="http://www.w3.org/2000/svg" viewBox="0 0 14.53 14.53"><title>read</title><circle cx="7.27" cy="7.27" r="7.27" style="fill:#facb0c"/><path d="M3.5,10.44a.16.16,0,0,0,.06-.09.22.22,0,0,0-.06-.18l-.09-.09a.11.11,0,0,0-.15,0,.11.11,0,0,0,0,.08.34.34,0,0,0,0,.14l.05.1a.79.79,0,0,1,.07.23.25.25,0,0,1-.11.21.34.34,0,0,1-.24.06.46.46,0,0,1-.25-.18.39.39,0,0,1-.1-.27.3.3,0,0,1,.12-.24l.12.16a.15.15,0,0,0,0,.14.34.34,0,0,0,.06.12.21.21,0,0,0,.11.08.1.1,0,0,0,.1,0,.07.07,0,0,0,0-.08.47.47,0,0,0,0-.14l-.07-.16a.49.49,0,0,1,0-.18.24.24,0,0,1,.11-.2.26.26,0,0,1,.24-.06.42.42,0,0,1,.26.19.48.48,0,0,1,.12.3.29.29,0,0,1-.12.24Z" style="fill:#231f20"/><path d="M3.28,9.61,2.37,10l-.09-.19.35-.16-.17-.36-.35.17L2,9.31l.91-.43L3,9.07l-.41.19.17.35.41-.19Z" style="fill:#231f20"/><path d="M2.61,7.93a.46.46,0,0,1,.18.3.45.45,0,0,1,0,.35.58.58,0,0,1-.38.24.58.58,0,0,1-.44-.07.41.41,0,0,1-.18-.29.44.44,0,0,1,0-.35.55.55,0,0,1,.38-.24A.55.55,0,0,1,2.61,7.93Zm-.13.16a.4.4,0,0,0-.27,0A.39.39,0,0,0,2,8.2a.25.25,0,0,0-.05.22.22.22,0,0,0,.14.17.4.4,0,0,0,.27,0,.4.4,0,0,0,.24-.13.26.26,0,0,0,.05-.21A.25.25,0,0,0,2.48,8.09Z" style="fill:#231f20"/><path d="M1.65,7.57V7.36h.62a.28.28,0,0,0,.15,0,.15.15,0,0,0,.09-.16A.18.18,0,0,0,2.43,7L2.28,7H1.66V6.76h.62a.55.55,0,0,1,.25.05.39.39,0,0,1,.16.36.36.36,0,0,1-.17.35.47.47,0,0,1-.25,0Z" style="fill:#231f20"/><path d="M1.72,6.33l.05-.2.8.18.12-.49.17,0-.16.7Z" style="fill:#231f20"/><path d="M2.26,4.76a.3.3,0,0,1,.19-.1h.18l.16,0a.78.78,0,0,1,.28.22.37.37,0,0,1,0,.38l-.19.4L2,5.29l.18-.4A.74.74,0,0,1,2.26,4.76Zm0,.41.6.28.08-.18a.21.21,0,0,0,0-.25.56.56,0,0,0-.17-.11.44.44,0,0,0-.23,0c-.07,0-.12,0-.16.14Z" style="fill:#231f20"/><path d="M3.29,3.33a.32.32,0,0,1,.21,0,.34.34,0,0,1,.17,0l.14.1A.64.64,0,0,1,4,3.73a.34.34,0,0,1-.09.38l-.29.32-.75-.68.3-.32A.35.35,0,0,1,3.29,3.33Zm-.15.38.49.45L3.76,4a.21.21,0,0,0,0-.26.4.4,0,0,0-.12-.15.39.39,0,0,0-.2-.12c-.07,0-.13,0-.2.08Z" style="fill:#231f20"/><path d="M4.47,2.59,4,2.89l.13.18.4-.28.1.14-.4.28.14.22.46-.32L5,3.25l-.63.44-.58-.83.61-.42Z" style="fill:#231f20"/><path d="M5.15,2.82a.15.15,0,0,0,.08.08s.11,0,.19,0l.1-.06a.13.13,0,0,0,0-.15.08.08,0,0,0-.07-.05.41.41,0,0,0-.15,0l-.11,0a.7.7,0,0,1-.23,0,.25.25,0,0,1-.18-.17.25.25,0,0,1,0-.24.45.45,0,0,1,.24-.2.46.46,0,0,1,.28,0,.29.29,0,0,1,.21.18l-.19.08a.16.16,0,0,0-.12-.09l-.13,0A.24.24,0,0,0,5,2.32a.12.12,0,0,0,0,.1s0,.06.08.06h.14l.18,0a.6.6,0,0,1,.19,0,.25.25,0,0,1,.16.16.28.28,0,0,1,0,.25.41.41,0,0,1-.24.2.42.42,0,0,1-.32,0A.29.29,0,0,1,5,2.9Z" style="fill:#231f20"/><path d="M6.22,2.78,6,2.83l-.26-1L6,1.8Z" style="fill:#231f20"/><path d="M7.05,2a.19.19,0,0,0-.13-.13.2.2,0,0,0-.11,0,.24.24,0,0,0-.2.11.44.44,0,0,0-.05.28.33.33,0,0,0,.11.25.25.25,0,0,0,.2.06A.26.26,0,0,0,7,2.45a.25.25,0,0,0,.06-.17l-.23,0V2.13l.42,0,0,.54H7.18l0-.13a.27.27,0,0,1-.1.11.32.32,0,0,1-.2.07.43.43,0,0,1-.34-.11.51.51,0,0,1-.16-.37.49.49,0,0,1,.44-.58.54.54,0,0,1,.32.07.39.39,0,0,1,.15.23Z" style="fill:#231f20"/><path d="M7.68,1.65l.22,0,.3.75.1-.69.19,0-.14,1-.21,0L7.83,2l-.1.71-.19,0Z" style="fill:#231f20"/><path d="M9.54,2.31,9,2.12,9,2.32l.45.17-.06.17L8.9,2.48l-.09.25.53.19-.07.17-.71-.27.35-.94.69.26Z" style="fill:#231f20"/><path d="M10.51,2.71a.15.15,0,0,1,0,.11.14.14,0,0,1,0,.09.3.3,0,0,1,0,.1.27.27,0,0,1-.11.1.2.2,0,0,1-.15,0,.18.18,0,0,1,0,.12.29.29,0,0,1-.06.15l0,.05a.21.21,0,0,0,0,.09.08.08,0,0,0,0,.07v0l-.2-.13s0,0,0,0a.2.2,0,0,1,0-.08l0-.08a.19.19,0,0,0,0-.13s0-.06-.08-.09L9.83,3l-.22.33-.17-.11L10,2.33l.4.27A.33.33,0,0,1,10.51,2.71Zm-.44-.12-.15.23.19.12a.16.16,0,0,0,.09,0c.05,0,.08,0,.11-.06a.11.11,0,0,0,0-.13.15.15,0,0,0-.07-.07Z" style="fill:#231f20"/><path d="M10.61,3.65a.24.24,0,0,0,0,.1.26.26,0,0,0,.09.17.3.3,0,0,0,.1.07.11.11,0,0,0,.14,0,.08.08,0,0,0,0-.08.33.33,0,0,0-.07-.13l-.06-.1a.63.63,0,0,1-.1-.21.24.24,0,0,1,.08-.23A.33.33,0,0,1,11,3.13a.46.46,0,0,1,.27.15.45.45,0,0,1,.14.25.32.32,0,0,1-.09.26l-.15-.14a.13.13,0,0,0,0-.15.34.34,0,0,0-.07-.11A.25.25,0,0,0,11,3.32a.1.1,0,0,0-.1,0,.08.08,0,0,0,0,.09.45.45,0,0,0,.06.13l.1.15a.6.6,0,0,1,.07.18.27.27,0,0,1-.08.21.31.31,0,0,1-.24.08A.39.39,0,0,1,10.53,4a.58.58,0,0,1-.16-.28.3.3,0,0,1,.1-.26Z" style="fill:#231f20"/><path d="M12.08,4.33l.1.19-.73.39.23.44-.16.09-.33-.63Z" style="fill:#231f20"/><path d="M12.59,6.07l-.15-.51-.21.06.14.47-.16,0-.14-.47-.25.07.16.54-.18,0-.22-.73,1-.29.21.71Z" style="fill:#231f20"/><path d="M12.87,6.72V7l-1,.43,0-.23.2-.08,0-.37-.21,0,0-.22Zm-.63,0,0,.26.38-.16Z" style="fill:#231f20"/><path d="M12.77,8.32a.3.3,0,0,1-.08.08l-.09,0h-.11a.21.21,0,0,1-.13,0,.18.18,0,0,1-.08-.14.17.17,0,0,1-.1.09.37.37,0,0,1-.16,0h-.16a.06.06,0,0,0-.06,0h0l0-.24H12c.07,0,.11,0,.13,0A.13.13,0,0,0,12.22,8l0-.21-.39,0,0-.21,1,.15-.07.47A.5.5,0,0,1,12.77,8.32Zm-.08-.46-.27,0,0,.22a.16.16,0,0,0,0,.1s0,.07.1.08a.13.13,0,0,0,.13,0,.12.12,0,0,0,0-.09Z" style="fill:#231f20"/><path d="M12.66,8.91l-.08.2-.8.12.66.26-.07.18-.94-.36.07-.2L12.32,9l-.67-.26.07-.19Z" style="fill:#231f20"/><path d="M11.43,11.07,11.29,11l.19-.24-.65-.51L11,10l.65.51.19-.24.14.12Z" style="fill:#231f20"/><path d="M10,11.1a.44.44,0,0,1,.18-.3.43.43,0,0,1,.33-.13.54.54,0,0,1,.38.23.52.52,0,0,1,.15.41.48.48,0,0,1-.18.31.45.45,0,0,1-.33.12.54.54,0,0,1-.38-.22A.52.52,0,0,1,10,11.1Zm.2,0a.42.42,0,0,0,.11.25.36.36,0,0,0,.22.15.25.25,0,0,0,.31-.25.42.42,0,0,0-.11-.25.36.36,0,0,0-.23-.15.24.24,0,0,0-.21,0A.27.27,0,0,0,10.22,11.13Z" style="fill:#231f20"/><path d="M9.06,12.57a.2.2,0,0,1-.11,0l-.08-.06a.34.34,0,0,1-.07-.24.19.19,0,0,1,.07-.13.21.21,0,0,1-.12,0,.3.3,0,0,1-.08-.14l0-.06a.46.46,0,0,0,0-.09l-.06,0v0l.22-.08,0,0,0,.08,0,.09c0,.06.05.09.08.1s.07,0,.13,0l.19-.07-.15-.37.2-.08.36.95-.45.17Zm.36-.29L9.32,12l-.21.09a.13.13,0,0,0-.09.05.1.1,0,0,0,0,.12.14.14,0,0,0,.1.1.2.2,0,0,0,.1,0Z" style="fill:#231f20"/><path d="M7.73,12.7l.53-.08,0-.21-.49.07,0-.17.48-.07,0-.26-.55.09,0-.18.76-.12.15,1-.73.12Z" style="fill:#231f20"/><path d="M7.05,12.88H6.81l-.3-1,.23,0,.06.21.37,0,.08-.2h.22Zm0-.62-.26,0,.1.41Z" style="fill:#231f20"/><path d="M5.53,12.59a.31.31,0,0,1-.13-.17.37.37,0,0,1,0-.18.78.78,0,0,1,0-.16.73.73,0,0,1,.18-.31A.34.34,0,0,1,6,11.69l.42.12-.28,1-.42-.12A.37.37,0,0,1,5.53,12.59Zm.41,0,.19-.63-.19-.05A.2.2,0,0,0,5.7,12a.39.39,0,0,0-.09.17.53.53,0,0,0,0,.24c0,.07.07.11.17.14Z" style="fill:#231f20"/><path d="M4.84,12.29a.3.3,0,0,1-.2,0,.51.51,0,0,1-.2-.18.31.31,0,0,1,.13-.36l.13,0h.06a.2.2,0,0,0,.08,0l0-.07.16.09L5,11.77l-.13.05H4.71a.17.17,0,0,0-.06.06.18.18,0,0,0,0,.1s0,.07.08.09a.11.11,0,0,0,.12,0A.2.2,0,0,0,4.91,12l.18.09A.34.34,0,0,1,4.84,12.29Zm.26-.73-.18-.1L5,11.29l.18.09Z" style="fill:#231f20"/><path d="M7.27,4.48h0a2.79,2.79,0,0,0,0,5.58h0a2.79,2.79,0,1,0,0-5.58ZM4.57,7.31h.71a3.79,3.79,0,0,0,.26,1.33h-.6A2.63,2.63,0,0,1,4.57,7.31ZM8,7.22a11.05,11.05,0,0,0-.1-1.32h1a3.49,3.49,0,0,1,.26,1.32ZM6.67,8.72H7.81C7.68,9.49,7.46,10,7.25,10h0C7,10,6.8,9.48,6.67,8.72Zm0-.08a10,10,0,0,1-.1-1.33H7.92a8.59,8.59,0,0,1-.1,1.33Zm-.1-1.42a9.88,9.88,0,0,1,.1-1.32H7.82a8.46,8.46,0,0,1,.1,1.32Zm.67-2.65h0c.21,0,.43.48.56,1.25H6.67C6.8,5.05,7,4.59,7.23,4.57ZM7.9,5.81a2.46,2.46,0,0,0-.45-1.23A1.93,1.93,0,0,1,8.86,5.81Zm-1.31,0H5.67A2,2,0,0,1,7,4.59,2.57,2.57,0,0,0,6.59,5.81Zm0,.09a9.33,9.33,0,0,0-.09,1.32H5.37A3.69,3.69,0,0,1,5.63,5.9ZM5.28,7.22H4.57A2.59,2.59,0,0,1,4.94,5.9h.6A3.69,3.69,0,0,0,5.28,7.22Zm.09.09H6.48a9.37,9.37,0,0,0,.09,1.33H5.63A3.75,3.75,0,0,1,5.37,7.31ZM6.59,8.72A2.52,2.52,0,0,0,7,9.94,2,2,0,0,1,5.67,8.72Zm1.31,0h1A1.94,1.94,0,0,1,7.45,10,2.55,2.55,0,0,0,7.9,8.72Zm0-.08A11.06,11.06,0,0,0,8,7.31H9.16A3.54,3.54,0,0,1,8.9,8.64ZM9.25,7.31H10a2.66,2.66,0,0,1-.39,1.35v0H9A3.58,3.58,0,0,0,9.25,7.31Zm0-.09A3.49,3.49,0,0,0,9,5.9h.59v0A2.72,2.72,0,0,1,10,7.22Zm.29-1.41H9A2.37,2.37,0,0,0,8,4.66,2.73,2.73,0,0,1,9.54,5.81Zm-3-1.15a2.32,2.32,0,0,0-1,1.15H5A2.72,2.72,0,0,1,6.57,4.66ZM5,8.72h.59a2.34,2.34,0,0,0,1,1.16A2.74,2.74,0,0,1,5,8.72ZM8,9.88A2.39,2.39,0,0,0,9,8.72h.58A2.75,2.75,0,0,1,8,9.88Z"/></svg>