<svg xmlns="http://www.w3.org/2000/svg" viewBox="0 0 15.57 15.46"><title>simplify</title><polygon points="7.79 0 9.04 2.74 11.43 0.9 11.27 3.91 14.24 3.39 12.7 5.98 15.57 6.9 13.01 8.48 15.12 10.62 12.11 10.83 12.99 13.71 10.23 12.5 9.66 15.46 7.79 13.1 5.91 15.46 5.34 12.5 2.58 13.71 3.46 10.83 0.45 10.62 2.56 8.48 0 6.9 2.87 5.98 1.33 3.39 4.3 3.91 4.14 0.9 6.53 2.74 7.79 0" style="fill:#308741"/><path d="M4.92,6.89l.17-.08c0,.1.22.11.41,0s.26-.2.22-.29-.28-.06-.44,0-.48,0-.58-.16A.44.44,0,0,1,5,5.8a.45.45,0,0,1,.63.13L5.44,6c-.05-.09-.2-.1-.37,0s-.25.19-.2.28.3,0,.41,0c.27-.08.5-.06.6.15s0,.47-.3.59A.46.46,0,0,1,4.92,6.89Z" style="fill:#c5dc7d"/><path d="M6.67,4.1h.19l-.1,1.33H6.58Z" style="fill:#c5dc7d"/><path d="M10.1,7l.16-.08.59,1.19-.16.08Z" style="fill:#c5dc7d"/><path d="M6.84,10.42l.09.31.61-.17.06.22L7,11l.15.52-.17,0L6.6,10.25,7.46,10l.06.23Z" style="fill:#c5dc7d"/><path d="M10,10.76l-.23-1,.2.06.18.68h0l.54-.44.21.07-.77.67-.14.43L9.8,11.2Z" style="fill:#c5dc7d"/><path d="M8.54,4.2l.26.08.14.81,0,0,.59-.57.27.09L9.42,5.89l-.17-.06.3-.93h0L9,5.45l-.19-.06L8.64,4.6h0l-.3.93-.18-.06Z" style="fill:#c5dc7d"/><path d="M5.85,8.52a.44.44,0,0,1-.48.41L5,8.89l0,.45H4.73L4.83,8l.6.05A.43.43,0,0,1,5.85,8.52Zm-.19,0c0-.13-.09-.22-.25-.23L5,8.25l0,.41.41,0C5.54,8.7,5.65,8.63,5.66,8.51Z" style="fill:#c5dc7d"/><path d="M8.46,8.23l-.05.23-.84-.18L7.85,7,8,7,7.8,8.09Z" style="fill:#c5dc7d"/></svg>