<svg xmlns="http://www.w3.org/2000/svg" viewBox="0 0 8.98 8.98"><title>ux</title><circle cx="4.49" cy="4.49" r="4.49" style="fill:#308741"/><path d="M4.49,6.53a2,2,0,0,1-2-2h.17a1.87,1.87,0,0,0,3.73,0h.18A2,2,0,0,1,4.49,6.53Z"/><path d="M2.22,3h.19v.55a.39.39,0,0,0,0,.13.15.15,0,0,0,.15.07c.07,0,.12,0,.14-.07a.23.23,0,0,0,0-.13V3h.18v.55a.41.41,0,0,1,0,.21.32.32,0,0,1-.31.15.32.32,0,0,1-.31-.15.41.41,0,0,1,0-.21Z" style="fill:#231f20"/><path d="M6.26,3.9H6.05l.28-.45L6.06,3h.22l.16.29L6.6,3h.21l-.27.43.29.46H6.61l-.17-.31Z" style="fill:#231f20"/></svg>